<svg width="31" height="31" viewBox="0 0 31 31" fill="none" xmlns="http://www.w3.org/2000/svg">
<path d="M15.5002 2.81989C8.06368 2.81989 2.03516 8.84731 2.03516 16.2844C2.03516 23.7209 8.06368 29.7495 15.5002 29.7495C22.9368 29.7495 28.9653 23.7209 28.9653 16.2844C28.9653 8.84731 22.9362 2.81989 15.5002 2.81989ZM6.53864 16.6601V14.27C6.53864 14.0671 6.70377 13.9014 6.90828 13.9014H11.0399L9.24478 17.0297H6.90883C6.70378 17.0297 6.53864 16.8629 6.53864 16.6601ZM9.47936 21.7114L8.10578 22.6448C7.91987 22.7717 7.78973 22.693 7.81488 22.4688L7.99916 20.8677C8.02485 20.6457 8.20475 20.5539 8.39887 20.6659L9.46186 21.2756C9.65761 21.3877 9.66527 21.5835 9.47936 21.7114ZM10.3679 20.6583C10.2558 20.8524 10.0048 20.9202 9.81017 20.8076L8.74664 20.1968C8.55252 20.0858 8.48417 19.8348 8.59627 19.6401L10.0956 17.0292L11.8924 13.9009L13.5219 11.0608C13.6329 10.8672 13.885 10.7983 14.0796 10.9115L15.1421 11.5201C15.3373 11.6333 15.4045 11.8837 15.2924 12.0778L13.7975 14.6817L12.4518 17.0292L10.3679 20.6583ZM13.3032 17.0297L15.0983 13.9014H16.7251C17.3539 15.3313 17.823 16.3298 18.1763 17.0297H13.3032ZM19.6641 18.079C19.2393 17.8641 17.1182 12.9697 16.5747 11.6934C16.0312 10.415 14.3897 7.01661 14.9195 6.75086C15.2985 6.56276 16.6562 9.23828 17.6716 10.8453C18.2517 11.7629 19.1922 13.5061 19.9419 14.9223C19.9518 14.9404 19.9611 14.9595 19.9709 14.9781C20.0048 15.0421 20.0382 15.106 20.0715 15.1684C20.0814 15.1864 20.0906 15.2034 20.0994 15.2209C20.1295 15.2766 20.1579 15.3319 20.1869 15.3866C20.2027 15.4188 20.2191 15.4494 20.2361 15.4784C20.2541 15.5156 20.2733 15.5522 20.2919 15.5872C20.3176 15.6353 20.3433 15.6824 20.369 15.7294C20.3723 15.7392 20.3766 15.7463 20.3805 15.7551C20.7053 16.3713 20.953 16.8465 21.0514 17.0302C21.059 17.045 21.0672 17.0592 21.0727 17.0696C21.3335 17.5426 20.8239 17.9379 20.5396 18.0544C20.2547 18.172 20.0901 18.2906 19.6641 18.079ZM21.0579 20.3286L20.4182 19.3159C20.2859 19.1043 20.3531 18.8451 20.5686 18.733L21.1782 18.4191C21.3942 18.3092 21.6633 18.3989 21.7786 18.6187L22.285 19.5915C22.3993 19.8113 22.3211 20.0945 22.1133 20.2176L21.6775 20.4784C21.4702 20.6053 21.1903 20.5369 21.0579 20.3286ZM23.6624 23.2299C23.5279 22.7996 22.5059 22.7717 22.0477 22.1265C21.5894 21.4812 21.9684 21.1515 22.1275 20.9979C23.9839 19.9513 23.6624 23.2299 23.6624 23.2299ZM24.1933 16.6601C24.1933 16.8629 24.0287 17.0297 23.8237 17.0297H21.8415C21.8147 16.922 21.7754 16.8159 21.7196 16.7136C21.666 16.6174 21.5145 16.3292 21.3231 15.964C21.0476 15.4385 20.6566 14.6932 20.2339 13.902H23.8231C24.0282 13.902 24.1928 14.0677 24.1928 14.2705L24.1933 16.6601Z" fill="#A3134C"/>
</svg>
