<svg width="48" height="48" viewBox="0 0 48 48" fill="none" xmlns="http://www.w3.org/2000/svg">
<path d="M24 3.50909C12.4854 3.50909 3.15088 12.8419 3.15088 24.3574C3.15088 35.872 12.4854 45.2065 24 45.2065C35.5147 45.2065 44.8491 35.872 44.8491 24.3574C44.8491 12.8419 35.5138 3.50909 24 3.50909ZM10.124 24.939V21.2383C10.124 20.9242 10.3797 20.6676 10.6964 20.6676H17.0938L14.3142 25.5114H10.6972C10.3797 25.5114 10.124 25.2532 10.124 24.939ZM14.6774 32.7605L12.5506 34.2058C12.2627 34.4022 12.0612 34.2803 12.1001 33.9332L12.3855 31.4541C12.4253 31.1104 12.7038 30.9681 13.0044 31.1417L14.6503 32.0857C14.9534 32.2593 14.9652 32.5624 14.6774 32.7605ZM16.0532 31.1299C15.8796 31.4304 15.491 31.5354 15.1896 31.361L13.5428 30.4153C13.2423 30.2434 13.1365 29.8548 13.31 29.5534L15.6316 25.5105L18.4137 20.6668L20.9368 16.2692C21.1087 15.9695 21.499 15.8628 21.8004 16.038L23.4454 16.9804C23.7477 17.1556 23.8518 17.5434 23.6783 17.844L21.3635 21.8758L19.2799 25.5105L16.0532 31.1299ZM20.5981 25.5114L23.3777 20.6676H25.8965C26.8702 22.8816 27.5966 24.4277 28.1436 25.5114H20.5981ZM30.4474 27.1361C29.7895 26.8034 26.5053 19.2249 25.6637 17.2488C24.8221 15.2693 22.2804 10.0073 23.1009 9.59577C23.6876 9.30452 25.7899 13.4473 27.3621 15.9356C28.2604 17.3563 29.7167 20.0555 30.8775 22.2483C30.8927 22.2763 30.9071 22.3059 30.9223 22.3347C30.9748 22.4338 31.0265 22.5328 31.0781 22.6293C31.0934 22.6573 31.1078 22.6835 31.1213 22.7106C31.1679 22.797 31.2119 22.8825 31.2568 22.9672C31.2813 23.0171 31.3067 23.0645 31.333 23.1094C31.3609 23.167 31.3906 23.2237 31.4193 23.2779C31.4591 23.3524 31.4989 23.4252 31.5387 23.498C31.5438 23.5133 31.5506 23.5243 31.5565 23.5378C32.0594 24.492 32.443 25.2278 32.5954 25.5122C32.6072 25.5351 32.6199 25.5571 32.6284 25.5732C33.0322 26.3056 32.2431 26.9177 31.8029 27.098C31.3618 27.2801 31.1069 27.4638 30.4474 27.1361ZM32.6055 30.6193L31.6149 29.0513C31.41 28.7236 31.5142 28.3223 31.8478 28.1487L32.7918 27.6628C33.1262 27.4926 33.5428 27.6314 33.7214 27.9718L34.5054 29.478C34.6824 29.8184 34.5613 30.2569 34.2396 30.4474L33.5648 30.8513C33.2439 31.0477 32.8104 30.9419 32.6055 30.6193ZM36.6382 35.1117C36.4299 34.4454 34.8475 34.4022 34.138 33.4032C33.4285 32.4041 34.0152 31.8936 34.2616 31.6556C37.136 30.0351 36.6382 35.1117 36.6382 35.1117ZM37.4603 24.939C37.4603 25.2532 37.2055 25.5114 36.888 25.5114H33.8188C33.7773 25.3446 33.7163 25.1803 33.63 25.022C33.547 24.873 33.3125 24.4268 33.0162 23.8612C32.5894 23.0476 31.9841 21.8936 31.3296 20.6685H36.8871C37.2046 20.6685 37.4595 20.925 37.4595 21.2391L37.4603 24.939Z" fill="white"/>
</svg>
