<svg width="48" height="48" viewBox="0 0 48 48" fill="none" xmlns="http://www.w3.org/2000/svg">
<path d="M24.7279 3.70294C13.2137 3.70294 3.87891 13.036 3.87891 24.5502C3.87891 36.0645 13.2137 45.3992 24.7279 45.3992C36.2413 45.3992 45.576 36.0645 45.576 24.5502C45.5761 13.036 36.2413 3.70294 24.7279 3.70294ZM18.7037 12.4168L31.8394 19.4494L27.8314 23.4574L16.6404 12.2663C17.2808 12.0327 18.0211 12.0514 18.7037 12.4168ZM14.9614 33.9681V14.6581C14.9614 13.9834 15.2144 13.3945 15.6157 12.9534L26.9755 24.3131L15.6157 35.6729C15.2144 35.2318 14.9614 34.6429 14.9614 33.9681ZM18.7037 36.2095C18.0211 36.5749 17.2809 36.5935 16.6404 36.36L27.8313 25.169L31.8393 29.177L18.7037 36.2095ZM36.7379 26.5544L32.9542 28.5802L28.6871 24.3131L32.9542 20.0461L36.7379 22.0718C38.5278 23.0301 38.5278 25.5963 36.7379 26.5544Z" fill="white"/>
</svg>
