<svg width="30" height="30" viewBox="0 0 30 30" fill="none" xmlns="http://www.w3.org/2000/svg">
<path d="M15.4549 2.31433C8.25854 2.31433 2.42432 8.1475 2.42432 15.3439C2.42432 22.5403 8.25854 28.3745 15.4549 28.3745C22.6508 28.3745 28.485 22.5403 28.485 15.3439C28.4851 8.1475 22.6508 2.31433 15.4549 2.31433ZM11.6898 7.76052L19.8996 12.1558L17.3946 14.6608L10.4002 7.66644C10.8005 7.52044 11.2632 7.53213 11.6898 7.76052ZM9.35089 21.2301V9.16132C9.35089 8.73963 9.509 8.37154 9.75983 8.09585L16.8597 15.1957L9.75983 22.2955C9.509 22.0199 9.35089 21.6518 9.35089 21.2301ZM11.6898 22.6309C11.2632 22.8593 10.8006 22.871 10.4002 22.725L17.3946 15.7306L19.8996 18.2356L11.6898 22.6309ZM22.9612 16.5965L20.5964 17.8626L17.9295 15.1957L20.5964 12.5288L22.9612 13.7949C24.0799 14.3938 24.0799 15.9977 22.9612 16.5965Z" fill="#A3134C"/>
</svg>
