<svg width="216" height="58" viewBox="0 0 216 58" fill="none" xmlns="http://www.w3.org/2000/svg">
<path d="M11.3885 0.566965C12.3045 -0.283187 13.6592 0.0980104 14.7863 0.0184801C15.7435 -0.0857321 16.7554 0.443545 17.0488 1.39517C17.2271 2.15482 17.1339 2.94738 17.1476 3.72348C23.7925 3.72622 30.4346 3.72622 37.0768 3.72348C37.1289 2.66491 36.8108 1.35952 37.7185 0.56422C38.629 -0.280447 39.9783 0.0980104 41.0999 0.0184801C42.057 -0.0884745 43.0745 0.435326 43.3734 1.38695C43.5654 2.2179 43.4557 3.08725 43.4749 3.9374C47.2237 4.65591 50.575 7.05553 52.4865 10.3574C50.8904 11.9453 49.2943 13.5331 47.7009 15.1237C47.0949 13.023 45.5097 11.2898 43.4913 10.4589C43.4639 11.3611 43.6175 12.4554 42.8331 13.1053C42.1612 13.7854 41.141 13.6236 40.2772 13.6566C39.4133 13.6209 38.3904 13.7909 37.7212 13.1053C36.8382 12.3347 37.1152 11.065 37.0768 10.0338C30.4346 10.0311 23.7925 10.0311 17.1503 10.0338C17.1092 11.0622 17.3944 12.3347 16.5086 13.1026C15.8394 13.7854 14.8165 13.6236 13.9526 13.6566C13.0915 13.6209 12.0686 13.7909 11.3994 13.1108C10.6151 12.4581 10.7577 11.3666 10.7358 10.4644C8.90933 11.224 7.37905 12.7132 6.72087 14.5945C6.2766 15.749 6.30128 17.0023 6.315 18.22C6.32322 27.0944 6.30677 35.9662 6.32322 44.8407C6.32048 47.4981 8.03724 50.0321 10.4807 51.0632C11.6518 51.6007 12.9599 51.6611 14.2269 51.6309C23.2714 51.6117 32.3187 51.6474 41.3632 51.6117C44.7775 51.524 47.7887 48.532 47.8929 45.1204C47.934 40.5405 47.8984 35.9607 47.9094 31.3836C49.9936 29.2747 52.1272 27.2178 54.2169 25.1171C54.2197 30.4045 54.2169 35.6919 54.2169 40.9793C54.173 43.5983 54.4583 46.2996 53.5697 48.8254C51.9489 54.0141 46.8371 57.859 41.3906 57.9248C32.4256 57.9467 23.4579 57.9248 14.4929 57.9357C13.0367 57.9549 11.5695 57.933 10.1489 57.5765C5.75005 56.5673 2.02858 53.12 0.657371 48.8227C-0.20375 46.3901 0.0403253 43.7821 0.0101586 41.2536C0.0101586 34.03 0.00741617 26.8092 0.0101586 19.5884C0.0156434 17.4877 -0.118734 15.3431 0.514766 13.3083C1.80371 8.58032 5.94476 4.83966 10.7522 3.9374C10.8235 2.813 10.4396 1.42534 11.3885 0.566965Z" fill="black"/>
<path d="M61.5884 4.6175C62.6387 3.74541 63.4203 2.19045 64.9616 2.21513C66.0064 2.20691 66.6783 3.09272 67.3584 3.74816C68.0194 4.42554 68.8942 5.11663 68.8586 6.16423C68.8448 7.67257 67.3255 8.45141 66.4617 9.48805C64.8354 7.86728 63.2119 6.24102 61.5884 4.6175Z" fill="black"/>
<path d="M40.4802 25.5642C46.9633 19.0757 53.5013 12.642 60.0173 6.18903C61.6435 7.81254 63.267 9.43604 64.8905 11.0623C58.6543 17.241 52.4152 23.4169 46.179 29.5984C45.71 30.0371 45.2904 30.6405 44.5993 30.7227C43.4283 30.9613 42.2491 31.167 41.0808 31.4193C40.5817 31.4879 39.9729 31.7183 39.5752 31.2822C39.0788 30.6816 39.5313 29.8891 39.5917 29.2199C39.9235 28.0132 39.8933 26.6722 40.4802 25.5642Z" fill="black"/>
<path d="M19.2481 16.7089C19.9309 16.5114 20.6522 16.5718 21.3542 16.5635C25.6571 16.58 29.96 16.5553 34.2628 16.5745C35.7465 16.5169 37.0766 17.8278 37.0848 19.3032C37.1479 20.7293 35.9604 22.1005 34.5179 22.1581C32.5104 22.2129 30.5002 22.1636 28.4928 22.1773C27.4177 22.191 26.2165 22.0182 25.3006 22.7175C23.9403 23.6198 23.6442 25.7013 24.7 26.9464C25.2677 27.6621 26.1782 28.068 27.0914 28.0406C29.7515 28.057 32.4144 28.0186 35.0746 28.0516C35.5874 27.994 36.0701 28.4136 36.0481 28.9374C36.0728 29.8369 36.1524 30.7748 35.8973 31.6524C35.5024 32.7932 34.3753 33.6516 33.1549 33.6543C31.0487 33.6982 28.9425 33.6214 26.8363 33.679C25.328 33.7119 24.0199 35.0914 24.0583 36.5997C24.0116 38.1135 25.3253 39.5039 26.8446 39.5341C29.3155 39.578 31.7892 39.5231 34.2628 39.5533C35.7657 39.4957 37.1287 40.845 37.082 42.3506C37.1259 43.8589 35.7629 45.2109 34.2519 45.1533C29.5952 45.167 24.9331 45.1561 20.2737 45.1561C18.5954 45.2575 17.0651 43.7547 17.1528 42.0736C17.1473 34.5758 17.1419 27.0752 17.1556 19.5775C17.1254 18.294 18.0304 17.0846 19.2481 16.7089Z" fill="black"/>
<path d="M113.776 15.1583C115.687 14.4425 118.128 15.6739 118.441 17.7444C118.808 19.7135 116.974 21.5454 115.043 21.4906C113.266 21.5893 111.45 20.1221 111.467 18.2819C111.401 16.8614 112.479 15.6026 113.776 15.1583Z" fill="black"/>
<path d="M63.0355 17.0451C64.0585 16.6914 65.1774 16.8532 66.2414 16.8587C67.5221 16.8861 68.556 18.1119 68.4601 19.3735C68.4601 27.247 68.4683 35.1177 68.4546 42.9885C68.5177 44.2061 67.4975 45.3716 66.2689 45.4073C65.4297 45.4539 64.5905 45.4594 63.7541 45.4046C62.5556 45.3278 61.5766 44.1869 61.6342 42.9967C61.6205 35.1177 61.6287 27.236 61.6314 19.3543C61.5848 18.3917 62.1443 17.4318 63.0355 17.0451Z" fill="black"/>
<path d="M123.904 19.3568C123.813 18.1474 124.776 16.9572 125.996 16.8695C127.006 16.8146 128.023 16.7927 129.032 16.8887C129.795 16.9819 130.368 17.5578 130.765 18.1749C134.023 22.9686 137.306 27.7459 140.564 32.5397C140.783 32.8551 141.028 33.154 141.283 33.4474C141.428 28.6592 141.283 23.8627 141.354 19.0716C141.365 17.7991 142.58 16.757 143.836 16.842C144.867 16.8722 145.978 16.6665 146.951 17.1053C147.777 17.5167 148.279 18.4326 148.229 19.3486C148.232 27.2276 148.237 35.1093 148.226 42.9856C148.306 44.3019 147.121 45.4922 145.808 45.4236C144.445 45.3742 142.684 45.7966 141.752 44.5049C138.622 40.0375 135.559 35.5262 132.449 31.0451C131.928 30.2964 131.454 29.5093 130.837 28.8319C130.754 33.6367 130.848 38.4414 130.79 43.2461C130.749 44.4171 129.674 45.4318 128.503 45.4181C127.474 45.4099 126.408 45.558 125.409 45.2673C124.485 44.9217 123.86 43.9674 123.907 42.9856C123.901 35.1093 123.907 27.2331 123.904 19.3568Z" fill="black"/>
<path d="M181.347 19.5791C182.282 18.5671 183.774 18.888 185 18.8524C186.228 18.7673 187.427 19.7628 187.484 21.0079C187.542 22.0007 187.49 22.9962 187.506 23.9917C188.452 24.0246 189.527 23.8134 190.353 24.4085C191.74 25.3327 191.738 27.6802 190.345 28.5962C189.519 29.1886 188.45 28.9774 187.506 29.0103C187.517 32.293 187.481 35.5784 187.52 38.8638C187.462 39.6345 188.041 40.3831 188.844 40.3749C189.475 40.5203 190.334 40.0568 190.789 40.6574C191.088 41.6803 191.274 42.7361 191.472 43.7837C191.68 44.6558 190.942 45.4813 190.084 45.5416C187.566 45.9338 184.665 45.9365 182.586 44.25C181.157 43.0954 180.625 41.1867 180.683 39.4123C180.686 35.9569 180.683 32.5041 180.686 29.0514C180.041 28.9856 179.336 28.9856 178.815 28.5523C177.444 27.5815 177.513 25.1983 178.972 24.3454C179.474 23.9971 180.104 24.0191 180.686 23.9533C180.82 22.5053 180.247 20.7611 181.347 19.5791Z" fill="black"/>
<path d="M81.8021 25.9223C84.1496 23.0098 89.2122 22.9248 91.6118 25.8098C92.1548 26.4461 92.4153 27.2523 92.7033 28.0202C93.4849 26.0128 95.1934 24.3947 97.327 23.934C100.001 23.2621 103.179 23.9916 104.819 26.3391C105.831 27.7158 106.16 29.4655 106.149 31.1438C106.141 35.0874 106.155 39.0338 106.144 42.9774C106.196 44.1457 105.277 45.2783 104.104 45.3935C103.177 45.462 102.244 45.4648 101.32 45.3907C100.152 45.2591 99.2549 44.1155 99.318 42.9555C99.3043 39.4835 99.3207 36.0116 99.3153 32.5397C99.3125 31.6923 99.1315 30.7818 98.5282 30.1483C97.6204 29.1556 96.0216 29.0157 94.8588 29.6081C93.803 30.162 93.334 31.4044 93.345 32.5425C93.3203 36.0253 93.3505 39.5082 93.334 42.9911C93.4163 44.2992 92.2398 45.4812 90.9344 45.4236C89.8292 45.4044 88.5403 45.6567 87.6298 44.8751C86.9743 44.3596 86.7358 43.5012 86.7769 42.7004C86.7769 39.308 86.7796 35.9184 86.7796 32.5288C86.7851 31.7252 86.6151 30.8806 86.0831 30.2553C84.9888 28.8923 82.6386 28.9417 81.5608 30.3046C80.9821 30.9985 80.8066 31.9254 80.8066 32.8057C80.7902 36.1954 80.8121 39.5878 80.8011 42.9801C80.8752 44.2087 79.8386 45.3825 78.6017 45.4099C77.6967 45.4483 76.789 45.4757 75.8895 45.377C74.7678 45.1933 73.9286 44.0936 73.9835 42.9664C73.978 37.4788 73.9807 31.9858 73.9835 26.4982C73.8848 25.1818 75.0311 23.9367 76.3612 23.9998C77.5431 24.0711 79.0076 23.646 79.9345 24.6059C80.8066 25.5328 80.3486 26.9123 80.505 28.0476C80.9876 27.3703 81.2646 26.564 81.8021 25.9223Z" fill="black"/>
<path d="M160.978 23.978C162.923 23.5968 164.952 23.6077 166.883 24.0547C169.367 24.6306 171.641 26.1856 172.949 28.3905C174.364 30.6832 174.764 33.4667 174.539 36.1159C174.35 38.4525 173.503 40.778 171.929 42.5414C170.365 44.3048 168.125 45.399 165.799 45.6952C163.027 46.0572 160.046 45.7638 157.632 44.2582C155.452 42.9171 153.927 40.6546 153.33 38.1837C152.715 35.5812 152.778 32.7839 153.67 30.2526C154.767 27.0495 157.657 24.595 160.978 23.978ZM162.876 28.8759C161.834 29.1337 161.047 29.9839 160.608 30.9327C159.933 32.3615 159.829 33.9851 159.909 35.5428C160.005 37.0127 160.361 38.5649 161.392 39.6756C162.577 40.9974 164.905 41.0468 166.104 39.7222C167.264 38.4634 167.593 36.6726 167.642 35.0162C167.664 33.2364 167.412 31.3057 166.249 29.8851C165.465 28.8869 164.072 28.5496 162.876 28.8759Z" fill="black"/>
<path d="M202.302 24.1342C205.757 23.2429 209.797 23.6625 212.578 26.0538C215.051 28.182 216.085 31.5743 215.995 34.7556C215.978 35.6167 215.191 36.3654 214.335 36.3462C210.118 36.3736 205.897 36.3462 201.682 36.3571C201.718 37.5309 201.956 38.7814 202.801 39.659C203.996 40.9589 205.99 41.1619 207.606 40.6573C208.815 40.309 209.487 38.9871 210.759 38.7924C211.675 38.7293 212.599 38.7677 213.515 38.8665C214.599 38.9789 215.586 40.1773 215.092 41.2551C214.363 42.7333 213.049 43.8659 211.596 44.6064C209.413 45.7198 206.89 45.9584 204.479 45.7774C202.063 45.5881 199.636 44.6859 197.922 42.9335C196.244 41.2743 195.339 38.9679 195.086 36.6506C194.785 33.9438 195.089 31.078 196.46 28.6811C197.692 26.4625 199.855 24.7951 202.302 24.1342ZM202.979 29.6711C202.181 30.3512 201.816 31.3741 201.674 32.3834C203.698 32.3806 205.721 32.419 207.748 32.3751C208.648 32.4108 209.668 31.4482 209.182 30.535C208.02 28.352 204.729 28.0256 202.979 29.6711Z" fill="black"/>
<path d="M113.2 24.0986C114.176 23.9039 115.188 23.9889 116.178 24.0108C117.431 24.0355 118.468 25.2504 118.372 26.49C118.372 31.9858 118.378 37.4871 118.369 42.9829C118.441 44.2088 117.407 45.3825 116.173 45.41C115.265 45.4484 114.352 45.4758 113.449 45.3743C112.331 45.1851 111.497 44.0854 111.554 42.9637C111.549 37.4679 111.549 31.9721 111.554 26.4763C111.491 25.4287 112.193 24.4057 113.2 24.0986Z" fill="black"/>
</svg>
